<svg xmlns="http://www.w3.org/2000/svg" width="900" height="520" viewBox="0 0 860 370" font-family="Inter, Arial, sans-serif">
  <rect width="100%" height="100%" fill="#141414"/>

  <!-- Swatch size: 160 x 80 -->
  <!-- Gutter: 10px -->

  <!-- Row 1 — Dark Foundations -->
  <g transform="translate(10,10)">
    <rect width="160" height="80" fill="#40352A"/>
    <text x="80" y="30" fill="#FFFFFF" font-size="13" text-anchor="middle">Dark Soil</text>
    <text x="80" y="52" fill="#FFFFFF" font-size="11" text-anchor="middle">#40352A</text>
  </g>
  <g transform="translate(180,10)">
    <rect width="160" height="80" fill="#584939"/>
    <text x="80" y="30" fill="#FFFFFF" font-size="13" text-anchor="middle">Deep Bark</text>
    <text x="80" y="52" fill="#FFFFFF" font-size="11" text-anchor="middle">#584939</text>
  </g>
  <g transform="translate(350,10)">
    <rect width="160" height="80" fill="#6A5845"/>
    <text x="80" y="30" fill="#FFFFFF" font-size="13" text-anchor="middle">Weathered Wood</text>
    <text x="80" y="52" fill="#FFFFFF" font-size="11" text-anchor="middle">#6A5845</text>
  </g>
  <g transform="translate(520,10)">
    <rect width="160" height="80" fill="#79644F"/>
    <text x="80" y="30" fill="#FFFFFF" font-size="13" text-anchor="middle">Harvest Bark</text>
    <text x="80" y="52" fill="#FFFFFF" font-size="11" text-anchor="middle">#79644F</text>
  </g>
  <g transform="translate(690,10)">
    <rect width="160" height="80" fill="#8B725C"/>
    <text x="80" y="30" fill="#000000" font-size="13" text-anchor="middle">Dry Clay</text>
    <text x="80" y="52" fill="#000000" font-size="11" text-anchor="middle">#8B725C</text>
  </g>

  <!-- Row 2 — Warm Earth -->
  <g transform="translate(10,100)">
    <rect width="160" height="80" fill="#9B8066"/>
    <text x="80" y="30" fill="#000000" font-size="13" text-anchor="middle">Autumn Soil</text>
    <text x="80" y="52" fill="#000000" font-size="11" text-anchor="middle">#9B8066</text>
  </g>
  <g transform="translate(180,100)">
    <rect width="160" height="80" fill="#AC8E71"/>
    <text x="80" y="30" fill="#000000" font-size="13" text-anchor="middle">Golden Stubble</text>
    <text x="80" y="52" fill="#000000" font-size="11" text-anchor="middle">#AC8E71</text>
  </g>
  <g transform="translate(350,100)">
    <rect width="160" height="80" fill="#EBCB8B"/>
    <text x="80" y="30" fill="#000000" font-size="13" text-anchor="middle">Ripe Wheat</text>
    <text x="80" y="52" fill="#000000" font-size="11" text-anchor="middle">#EBCB8B</text>
  </g>

  <!-- Row 3 — Cool Accents -->
  <g transform="translate(10,190)">
    <rect width="160" height="80" fill="#81A1C1"/>
    <text x="80" y="30" fill="#000000" font-size="13" text-anchor="middle">Cool Sky</text>
    <text x="80" y="52" fill="#000000" font-size="11" text-anchor="middle">#81A1C1</text>
  </g>
  <g transform="translate(180,190)">
    <rect width="160" height="80" fill="#8FBCBB"/>
    <text x="80" y="30" fill="#000000" font-size="13" text-anchor="middle">Morning Dew</text>
    <text x="80" y="52" fill="#000000" font-size="11" text-anchor="middle">#8FBCBB</text>
  </g>
  <g transform="translate(350,190)">
    <rect width="160" height="80" fill="#A3BE8C"/>
    <text x="80" y="30" fill="#000000" font-size="13" text-anchor="middle">Fresh Sprout</text>
    <text x="80" y="52" fill="#000000" font-size="11" text-anchor="middle">#A3BE8C</text>
  </g>
  <g transform="translate(520,190)">
    <rect width="160" height="80" fill="#BF616A"/>
    <text x="80" y="30" fill="#FFFFFF" font-size="13" text-anchor="middle">Berry Rust</text>
    <text x="80" y="52" fill="#FFFFFF" font-size="11" text-anchor="middle">#BF616A</text>
  </g>

  <!-- Row 4 — Light Neutrals -->
  <g transform="translate(10,280)">
    <rect width="160" height="80" fill="#E8E9E4"/>
    <text x="80" y="30" fill="#000000" font-size="13" text-anchor="middle">Morning Fog</text>
    <text x="80" y="52" fill="#000000" font-size="11" text-anchor="middle">#E8E9E4</text>
  </g>
  <g transform="translate(180,280)">
    <rect width="160" height="80" fill="#F3F4EE"/>
    <text x="80" y="30" fill="#000000" font-size="13" text-anchor="middle">Parchment</text>
    <text x="80" y="52" fill="#000000" font-size="11" text-anchor="middle">#F3F4EE</text>
  </g>
  <g transform="translate(350,280)">
    <rect width="160" height="80" fill="#F4EEDF"/>
    <text x="80" y="30" fill="#000000" font-size="13" text-anchor="middle">Sun-Bleached Grain</text>
    <text x="80" y="52" fill="#000000" font-size="11" text-anchor="middle">#F4EEDF</text>
  </g>
  <g transform="translate(520,280)">
    <rect width="160" height="80" fill="#FEFFF9"/>
    <text x="80" y="30" fill="#000000" font-size="13" text-anchor="middle">Milk Husk</text>
    <text x="80" y="52" fill="#000000" font-size="11" text-anchor="middle">#FEFFF9</text>
  </g>
</svg>
