<svg viewBox="0 0 24 24" xmlns="http://www.w3.org/2000/svg">
 <defs>
  <style id="current-color-scheme" type="text/css">
   .ColorScheme-Text { color:#ccbeb1; } .ColorScheme-Highlight { color:#ac9680; } .ColorScheme-NeutralText { color:#8e755d; } .ColorScheme-PositiveText { color:#ac957f; } .ColorScheme-NegativeText { color:#695644; }
  </style>
 </defs>
 <path class="ColorScheme-Text" d="m4 4v4h4v-4h-4zm1 1h2v2h-2v-2zm11 5v4h4v-4h-4zm1 1h2v2h-2v-2zm-13 5v4h4v-4h-4zm1 1h2v2h-2v-2z" fill="currentColor"/>
 <path class="ColorScheme-Highlight" d="m10 6v1h1v2h-1v1h4v-1h-1v-2h1v-1h-4zm0 8v1h1v2h-1v1h4v-1h-1v-2h1v-1h-4z" fill="currentColor"/>
</svg>
