<svg viewBox="0 0 24 24" xmlns="http://www.w3.org/2000/svg">
 <defs>
  <style id="current-color-scheme" type="text/css">
   .ColorScheme-Text { color:#ccbeb1; } .ColorScheme-Highlight { color:#ac9680; } .ColorScheme-NeutralText { color:#8e755d; } .ColorScheme-PositiveText { color:#ac957f; } .ColorScheme-NegativeText { color:#695644; }
  </style>
 </defs>
 <path class="ColorScheme-Text" d="m4 4v4h1v-3h3v-1h-4zm12 0v1h3v3h1v-4h-4zm-10 2v5h5v-5h-5zm7 0v5h5v-5h-5zm-6 1h3v3h-3v-3zm7 0h3v3h-3v-3zm-8 6v5h5v-5h-5zm1 1h3v3h-3v-3zm-3 2v4h4v-1h-3v-3h-1z" fill="currentColor"/>
 <path class="ColorScheme-NegativeText" d="m14.99 14-0.99023 0.99023 2.0098 2.0098-2.0098 2.0098 0.99023 0.99023 2.0098-2.0098 2.0098 2.0098 0.99023-0.99023-2.0098-2.0098 2.0098-2.0098-0.99023-0.99023-2.0098 2.0098-2.0098-2.0098z" fill="currentColor"/>
</svg>
