<svg viewBox="0 0 24 24" xmlns="http://www.w3.org/2000/svg">
 <defs>
  <style id="current-color-scheme" type="text/css">
   .ColorScheme-Text { color:#ccbeb1; } .ColorScheme-Highlight { color:#ac9680; } .ColorScheme-NeutralText { color:#8e755d; } .ColorScheme-PositiveText { color:#ac957f; } .ColorScheme-NegativeText { color:#695644; }
  </style>
 </defs>
 <g transform="translate(1,1)">
  <path class="ColorScheme-Text" d="m3 3v16h7v-2l5.5-5.5-1.5-1.5-4 4-1-1-5 5v-14h14v7h1v-8h-16zm4 2c-1.108 0-2 0.892-2 2s0.892 2 2 2 2-0.892 2-2-0.892-2-2-2zm10 6-6 6v2h2v-0.03125l1-0.96875 5-5-2-2zm-0.28125 1.6875 0.5625 0.59375-4.9688 5-0.59375-0.59375 5-5z" fill="currentColor"/>
 </g>
</svg>
