<svg viewBox="0 0 24 24" xmlns="http://www.w3.org/2000/svg">
 <defs>
  <style id="current-color-scheme" type="text/css">
   .ColorScheme-Text { color:#ccbeb1; } .ColorScheme-Highlight { color:#ac9680; } .ColorScheme-NeutralText { color:#8e755d; } .ColorScheme-PositiveText { color:#ac957f; } .ColorScheme-NegativeText { color:#695644; }
  </style>
 </defs>
 <g transform="translate(1,1)">
  <path class="ColorScheme-Text" d="m6 3a1 1 0 0 0-1 1 1 1 0 0 0 1 1 1 1 0 0 0 1-1 1 1 0 0 0-1-1zm1 3 0.0058594 13 3.8945-4.6992 6.0996-0.30078-10-8z" fill="currentColor"/>
  <path d="m14.707 3-0.70703 0.70703 1.793 1.793-1.793 1.793 0.70703 0.70703 1.793-1.793 1.793 1.793 0.70703-0.70703-1.793-1.793 1.793-1.793-0.70703-0.70703-1.793 1.793-1.793-1.793z" fill="#695644"/>
 </g>
</svg>
