<svg viewBox="0 0 24 24" xmlns="http://www.w3.org/2000/svg">
 <defs>
  <style id="current-color-scheme" type="text/css">
   .ColorScheme-Text { color:#ccbeb1; } .ColorScheme-Highlight { color:#ac9680; } .ColorScheme-NeutralText { color:#8e755d; } .ColorScheme-PositiveText { color:#ac957f; } .ColorScheme-NegativeText { color:#695644; }
  </style>
 </defs>
 <path class="ColorScheme-Text" d="m4 4v1h1v-1h-1zm5 0v1h1v-1h-1zm5 0v1h1v-1h-1zm5 0v1h1v-1h-1zm-15 3v1h1v-1h-1zm5 0v1h1v-1h-1zm5 0v1h1v-1h-1zm5 0v1h1v-1h-1zm-15 3v1h1v-1h-1zm5 0v1h1v-1h-1zm5 0v1h1v-1h-1zm5 0v1h1v-1h-1zm-15 3v1h1v-1h-1zm5 0v1h1v-1h-1zm5 0v1h1v-1h-1zm5 0v1h1v-1h-1zm-15 3v1h1v-1h-1zm5 0v1h1v-1h-1zm5 0v1h1v-1h-1zm5 0v1h1v-1h-1zm-15 3v1h1v-1h-1zm5 0v1h1v-1h-1zm5 0v1h1v-1h-1zm5 0v1h1v-1h-1z" fill="currentColor"/>
</svg>
