<svg viewBox="0 0 24 24" xmlns="http://www.w3.org/2000/svg">
 <defs>
  <style id="current-color-scheme" type="text/css">
   .ColorScheme-Text { color:#ccbeb1; } .ColorScheme-Highlight { color:#ac9680; } .ColorScheme-NeutralText { color:#8e755d; } .ColorScheme-PositiveText { color:#ac957f; } .ColorScheme-NegativeText { color:#695644; }
  </style>
 </defs>
 <path class="ColorScheme-Text" d="m4 4v16h16v-16h-16zm1 1h4v2h-4v-2zm5 0h4v2h-4v-2zm5 0h4v2h-4v-1.99999zm-10 3h4v1h1v-1h4v1h1v-1h4v8h-4v-1h-1v1h-4v-1h-1v1h-4v-8zm0 9h4v2h-4v-2zm5 0h4v2h-4v-2zm5 0h4v2h-4v-2z" fill="currentColor"/>
 <path class="ColorScheme-NegativeText" d="m5 9v1h0.29297l4 4h-4.293v1h14.00003v-1h-0.29297l-4-4h4.293v-1h-14zm1.707 1h2.5859l4 4h-2.5859l-4-4zm4 0h2.5859l4 4h-2.5859l-4-4z" fill="currentColor"/>
</svg>
