<svg viewBox="0 0 24 24" xmlns="http://www.w3.org/2000/svg">
 <defs>
  <style id="current-color-scheme" type="text/css">
   .ColorScheme-Text { color:#ccbeb1; } .ColorScheme-Highlight { color:#ac9680; } .ColorScheme-NeutralText { color:#8e755d; } .ColorScheme-PositiveText { color:#ac957f; } .ColorScheme-NegativeText { color:#695644; }
  </style>
 </defs>
 <path class="ColorScheme-Text" d="m4 4v1h1v-1h-1zm15.293 0-6 6h0.70703v0.70703l6-6-0.70703-0.70703zm-13.293 2v1h1v-1h-1zm2 2v1h1v-1h-1zm2 5.293-6 6 0.70703 0.70703 6-6h-0.70703v-0.70703zm5 1.707v1h1v-1h-1zm2 2v1h1v-1h-1zm2 2v1h1v-1h-1z" fill="currentColor"/>
 <path class="ColorScheme-Highlight" d="m10 10v4h4v-4h-4zm1 1h2v2h-2v-2z" fill="currentColor"/>
</svg>
