<svg viewBox="0 0 24 24" xmlns="http://www.w3.org/2000/svg">
 <defs>
  <style id="current-color-scheme" type="text/css">
   .ColorScheme-Text { color:#ccbeb1; } .ColorScheme-Highlight { color:#ac9680; } .ColorScheme-NeutralText { color:#8e755d; } .ColorScheme-PositiveText { color:#ac957f; } .ColorScheme-NegativeText { color:#695644; }
  </style>
 </defs>
 <path class="ColorScheme-Text" d="m7 5v1h10v-1h-10zm-2 2v10h1v-10h-1zm13 0v10h1v-10h-1zm-11 11v1h10v-1h-10z" fill="currentColor"/>
 <path class="ColorScheme-Highlight" d="m3 3v4h4v-4h-4zm14 0v4h4v-4h-4zm-13 1h2v2h-2v-2zm14 0h2v2h-2v-2zm-15 13v4h4v-4h-4zm14 0v4h4v-4h-4zm-13 1h2v2h-2v-2zm14 0h2v2h-2v-2z" fill="currentColor"/>
</svg>
