<svg viewBox="0 0 24 24" xmlns="http://www.w3.org/2000/svg">
 <defs>
  <style id="current-color-scheme" type="text/css">
   .ColorScheme-Text { color:#ccbeb1; } .ColorScheme-Highlight { color:#ac9680; } .ColorScheme-NeutralText { color:#8e755d; } .ColorScheme-PositiveText { color:#ac957f; } .ColorScheme-NegativeText { color:#695644; }
  </style>
 </defs>
 <path class="ColorScheme-Text" d="m4 4v16h9v-1h-8v-14h14v8h1v-9h-16zm2 2v1h12v-1h-12zm0 2v1h9v-1h-9zm0 3v1h12v-1h-12zm0 2v1h4v-1h-4zm0 3v1h7v-1h-7z" fill="currentColor"/>
 <path class="ColorScheme-NegativeText" d="m14.98 14-0.99024 0.99023 2.0098 2.0098-2.0098 2.0098 0.99024 0.99023 2.0098-2.0098 2.0098 2.0098 0.99023-0.99023-2.0098-2.0098 2.0098-2.0098-0.99023-0.99023-2.0098 2.0098-2.0098-2.0098z" fill="currentColor"/>
</svg>
