<svg viewBox="0 0 24 24" xmlns="http://www.w3.org/2000/svg">
 <defs>
  <style id="current-color-scheme" type="text/css">
   .ColorScheme-Text { color:#ccbeb1; } .ColorScheme-Highlight { color:#ac9680; } .ColorScheme-NeutralText { color:#8e755d; } .ColorScheme-PositiveText { color:#ac957f; } .ColorScheme-NegativeText { color:#695644; }
  </style>
 </defs>
 <g transform="translate(1,1)">
  <path class="ColorScheme-Text" d="m11 3a8 3 0 0 0-8 3v10a8 3 0 0 0 8 3 8 3 0 0 0 8-3v-10a8 3 0 0 0-8-3zm0 1a7 2 0 0 1 7 2 7 2 0 0 1-7 2 7 2 0 0 1-7-2 7 2 0 0 1 7-2zm7 3.4453v3.5547a7 2 0 0 1-7 2 7 2 0 0 1-7-2v-3.5488a8 3 0 0 0 7 1.5488 8 3 0 0 0 7-1.5547zm0 5v3.5547a7 2 0 0 1-7 2 7 2 0 0 1-7-2v-3.5488a8 3 0 0 0 7 1.5488 8 3 0 0 0 7-1.5547z" fill="currentColor"/>
 </g>
</svg>
