<svg viewBox="0 0 24 24" xmlns="http://www.w3.org/2000/svg">
 <defs>
  <style id="current-color-scheme" type="text/css">
   .ColorScheme-Text { color:#ccbeb1; } .ColorScheme-Highlight { color:#ac9680; } .ColorScheme-NeutralText { color:#8e755d; } .ColorScheme-PositiveText { color:#ac957f; } .ColorScheme-NegativeText { color:#695644; }
  </style>
 </defs>
 <g transform="translate(1,1)">
  <path class="ColorScheme-Text" d="m3 3v16h16v-16h-16zm3 1h10v5.9004h-10v-5.9004zm-2 1h1v1h-1v-1zm13 0h1v1h-1v-1zm-13 2h1v1h-1v-1zm13 0h1v1h-1v-1zm-13 2h1v1h-1v-1zm13 0.099609h1v1h-1v-1zm-13 2.9004h1v1h-1v-1zm2 0h10v6h-10v-6zm11 0h1v1h-1v-1zm-13 2h1v1h-1v-1zm13 0h1v1h-1v-1zm-13 2h1v1h-1v-1zm13 0h1v1h-1v-1z" fill="currentColor"/>
 </g>
</svg>
