<svg viewBox="0 0 24 24" xmlns="http://www.w3.org/2000/svg">
 <defs>
  <style id="current-color-scheme" type="text/css">
   .ColorScheme-Text { color:#ccbeb1; } .ColorScheme-Highlight { color:#ac9680; } .ColorScheme-NeutralText { color:#8e755d; } .ColorScheme-PositiveText { color:#ac957f; } .ColorScheme-NegativeText { color:#695644; }
  </style>
 </defs>
 <path class="ColorScheme-Text" d="m5 4v2h-1v1h1v1h-1v1h1v6h-1v1h1v1h-1v1h1v2h15v-16h-15zm3 1h11v14h-11v-14zm1 2v2h2v-2h-2zm3 0v1h6v-1h-6zm-3 4v2h2v-2h-2zm3 0v1h6v-1h-6zm-3 4v2h2v-2h-2zm3 0v1h6v-1h-6z" fill="currentColor"/>
</svg>
