<svg width="24" height="24" version="1.1" viewBox="0 0 24 24" xmlns="http://www.w3.org/2000/svg">
 <defs>
  <style id="current-color-scheme" type="text/css">
   .ColorScheme-Text { color:#ccbeb1; } .ColorScheme-Highlight { color:#ac9680; } .ColorScheme-NeutralText { color:#8e755d; } .ColorScheme-PositiveText { color:#ac957f; } .ColorScheme-NegativeText { color:#695644; }
  </style>
 </defs>
 <path class="ColorScheme-Text" d="m12 4-2 2h4zm-3 3c-1.108 0-2 0.892-2 2v6c0 1.108 0.892 2 2 2h6c1.108 0 2-0.892 2-2v-6c0-1.108-0.892-2-2-2zm0 1h6c0.554 0 1 0.446 1 1v6c0 0.554-0.446 1-1 1h-6c-0.554 0-1-0.446-1-1v-6c0-0.554 0.446-1 1-1zm1 10 2 2 2-2z" fill="currentColor"/>
</svg>
