<svg width="16" height="16" version="1.1" xmlns="http://www.w3.org/2000/svg">
 <defs>
  <style id="current-color-scheme" type="text/css">
   .ColorScheme-Text { color:#191410; } .ColorScheme-Highlight { color:#ac9680; } .ColorScheme-NeutralText { color:#8e755d; } .ColorScheme-PositiveText { color:#ac957f; } .ColorScheme-NegativeText { color:#695644; }
  </style>
 </defs>
 <path d="M9.09 2L5.944 13.74l.967.26 3.146-11.74zM5.285 4L2.324 7.145 2 7.493l.324.346 2.943 3.162.715-.695-2.621-2.813L6 4.696zM12 4c-1.108 0-2 .892-2 2v1h1V6c0-.554.446-1 1-1s1 .446 1 1v1c-1.108 0-2 .892-2 2h1c0-.554.446-1 1-1h1V6c0-1.108-.892-2-2-2m-.5 6a.5.5 0 0 0-.5.5.5.5 0 0 0 .5.5.5.5 0 0 0 .5-.5.5.5 0 0 0-.5-.5" fill="#725e4b"/>
</svg>
