<svg width="16" height="16" version="1.1" xmlns="http://www.w3.org/2000/svg">
 <defs>
  <style id="current-color-scheme" type="text/css">
   .ColorScheme-Text { color:#191410; } .ColorScheme-Highlight { color:#ac9680; } .ColorScheme-NeutralText { color:#8e755d; } .ColorScheme-PositiveText { color:#ac957f; } .ColorScheme-NegativeText { color:#695644; }
  </style>
 </defs>
 <style type="text/css">.ColorScheme-Text {
            color:#080605;
        }</style>
 <path d="M12 4.293L8.293 8 12 11.707l.354-.353L15.707 8z" fill="#8e755d"/>
 <path class="ColorScheme-Text" d="M4 2v12h3.5a.5.5 0 0 0 .5-.5v-8a.5.5 0 0 0-.5-.5H5V2zm1 4h2v7H5zM1.5 2a.5.5 0 0 0-.5.5V5H0v1h1v8h1V6h1V5H2V3h1V2z" fill="#191410"/>
</svg>
