<svg width="16" height="16" version="1.1" xmlns="http://www.w3.org/2000/svg">
 <defs>
  <style id="current-color-scheme" type="text/css">
   .ColorScheme-Text { color:#191410; } .ColorScheme-Highlight { color:#ac9680; } .ColorScheme-NeutralText { color:#8e755d; } .ColorScheme-PositiveText { color:#ac957f; } .ColorScheme-NegativeText { color:#695644; }
  </style>
 </defs>
 <path d="M11.689 2.189L10.068 3.81H5.101a1.5 1.5 0 0 0-1.412-1 1.5 1.5 0 0 0-1.5 1.5 1.5 1.5 0 0 0 1 1.412v7.088h3v1h3v-1h3V5.931l1.62-1.62zm0 1.414l.707.707-.707.707-.707-.707zm-8 .207a.5.5 0 0 1 .5.5.5.5 0 0 1-.5.5.5.5 0 0 1-.5-.5.5.5 0 0 1 .5-.5m1.412 1h4.967l1.121 1.121v5.879h-2v-1h-3v1h-2V5.722a1.5 1.5 0 0 0 .912-.912m2.088 7h1v1h-1z" fill="#715d4a"/>
</svg>
