<svg width="16" height="16" version="1.1" xmlns="http://www.w3.org/2000/svg">
 <defs>
  <style id="current-color-scheme" type="text/css">
   .ColorScheme-Text { color:#191410; } .ColorScheme-Highlight { color:#ac9680; } .ColorScheme-NeutralText { color:#8e755d; } .ColorScheme-PositiveText { color:#ac957f; } .ColorScheme-NegativeText { color:#695644; }
  </style>
 </defs>
 <g class="ColorScheme-Text" fill="currentColor">
  <path d="M8 2a6 6 0 0 0-6 6 5.982 5.982 0 0 0 5 5.906v-1A5.017 5.017 0 0 1 3 8a5 5 0 0 1 5-5 5.017 5.017 0 0 1 4.906 4h1A5.982 5.982 0 0 0 8 2z" overflow="visible"/>
  <path d="M8 4a4 4 0 0 0-4 4h2a2 2 0 0 1 2-2V4zM9 8a1 1 0 1 1-2 0 1 1 0 1 1 2 0z" overflow="visible"/>
  <path d="M9.5 8V12.14A1.001 1.001 0 0 0 9 12a1 1 0 1 0 1 1V9.5h3.5v2.14a1.001 1.001 0 0 0-.5-.14 1 1 0 1 0 1 1V8H9.5zm.5.5h3.5V9H10v-.5z"/>
 </g>
</svg>
