<svg width="16" height="16" version="1.1" xmlns="http://www.w3.org/2000/svg">
 <defs>
  <style id="current-color-scheme" type="text/css">
   .ColorScheme-Text { color:#191410; } .ColorScheme-Highlight { color:#ac9680; } .ColorScheme-NeutralText { color:#8e755d; } .ColorScheme-PositiveText { color:#ac957f; } .ColorScheme-NegativeText { color:#695644; }
  </style>
 </defs>
 <path d="M2 2v12h12V2zm1 3h10v8H3zm3 1v3H5v.016L7.984 12h.031l2.984-2.984V9h-1V6zm1 1h2v2h.6L8 10.602 6.4 9H7z" fill="#ac957f"/>
 <path d="M2 2v12h12V2zm1 3h10v8H3zm3 1v3H5v.016L7.984 12h.031l2.984-2.984V9h-1V6zm1 1h2v2h.6L8 10.602 6.4 9H7z" fill="#191410" opacity=".3"/>
</svg>
