<svg width="16" height="16" version="1.1" xmlns="http://www.w3.org/2000/svg">
 <defs>
  <style id="current-color-scheme" type="text/css">
   .ColorScheme-Text { color:#191410; } .ColorScheme-Highlight { color:#ac9680; } .ColorScheme-NeutralText { color:#8e755d; } .ColorScheme-PositiveText { color:#ac957f; } .ColorScheme-NegativeText { color:#695644; }
  </style>
 </defs>
 <path d="M2 2v1h6V2zm0 3v1h12V5zm0 3v1h5V8zm6 0v6h6V8zm1 1h4v4H9zm-7 1v1h5v-1zm0 3v1h5v-1z" fill="#ac957f"/>
 <path d="M2 2v1h6V2zm0 3v1h12V5zm0 3v1h5V8zm6 0v6h6V8zm1 1h4v4H9zm-7 1v1h5v-1zm0 3v1h5v-1z" fill="#191410" opacity=".4"/>
</svg>
