<svg width="16" height="16" version="1.1" xmlns="http://www.w3.org/2000/svg">
 <defs>
  <style id="current-color-scheme" type="text/css">
   .ColorScheme-Text { color:#191410; } .ColorScheme-Highlight { color:#ac9680; } .ColorScheme-NeutralText { color:#8e755d; } .ColorScheme-PositiveText { color:#ac957f; } .ColorScheme-NegativeText { color:#695644; }
  </style>
 </defs>
 <path d="M8 2a6 2 0 0 0-6 2v8a6 2 0 0 0 6 2 6 2 0 0 0 6-2V4a6 2 0 0 0-6-2m0 1a5 1 0 0 1 5 1 5 1 0 0 1-5 1 5 1 0 0 1-5-1 5 1 0 0 1 5-1M3 5.102A6 2 0 0 0 8 6a6 2 0 0 0 5-.896V8a5 1 0 0 1-5 1 5 1 0 0 1-5-1zm0 4A6 2 0 0 0 8 10a6 2 0 0 0 5-.896V12a5 1 0 0 1-5 1 5 1 0 0 1-5-1z" fill="#937960"/>
</svg>
