<svg width="16" height="16" version="1.1" xmlns="http://www.w3.org/2000/svg">
 <defs>
  <style id="current-color-scheme" type="text/css">
   .ColorScheme-Text { color:#191410; } .ColorScheme-Highlight { color:#ac9680; } .ColorScheme-NeutralText { color:#8e755d; } .ColorScheme-PositiveText { color:#ac957f; } .ColorScheme-NegativeText { color:#695644; }
  </style>
 </defs>
 <g fill="#937960">
  <path d="M10 2L8.062 3.563l2.594 3.218L8.22 9.22 10 11l4-4z" font-family="Sans" font-weight="400" overflow="visible" stroke-width="5" style="block-progression:tb;text-indent:0;text-transform:none"/>
  <path d="M5 7.5a1.5 1.5 0 1 1-3 0 1.5 1.5 0 0 1 3 0zM6 3a1 1 0 1 1-2 0 1 1 0 0 1 2 0zM8 12.5a1.5 1.5 0 1 1-3 0 1.5 1.5 0 0 1 3 0z" overflow="visible" stroke-width=".1"/>
 </g>
</svg>
