<svg width="16" height="16" version="1.1" xmlns="http://www.w3.org/2000/svg">
 <defs>
  <style id="current-color-scheme" type="text/css">
   .ColorScheme-Text { color:#191410; } .ColorScheme-Highlight { color:#ac9680; } .ColorScheme-NeutralText { color:#8e755d; } .ColorScheme-PositiveText { color:#ac957f; } .ColorScheme-NegativeText { color:#695644; }
  </style>
 </defs>
 <path d="M3.74 2l-.334.943L10.26 5H1v9h14V5h-.99l-1.865-.479zM2 6h12v7H2zm1 1v1h4V7zm7.5 0A2.5 2.5 0 0 0 8 9.5a2.5 2.5 0 0 0 2.5 2.5A2.5 2.5 0 0 0 13 9.5 2.5 2.5 0 0 0 10.5 7m.049 1.02a1.48 1.48 0 0 1 1.48 1.48 1.48 1.48 0 0 1-1.48 1.48A1.48 1.48 0 0 1 9.07 9.5a1.48 1.48 0 0 1 1.479-1.48M2.999 9v1h4V9zm0 2v1h4v-1z" fill="#ac9680" stroke-width="1.4"/>
</svg>
