<svg width="16" height="16" version="1.1" xmlns="http://www.w3.org/2000/svg">
 <defs>
  <style id="current-color-scheme" type="text/css">
   .ColorScheme-Text { color:#191410; } .ColorScheme-Highlight { color:#ac9680; } .ColorScheme-NeutralText { color:#8e755d; } .ColorScheme-PositiveText { color:#ac957f; } .ColorScheme-NegativeText { color:#695644; }
  </style>
 </defs>
 <path d="M7 2v3h1V2H7zM5 3v2h1V3H5zm4 0v2h1V3H9zM3 4v1h1V4H3zM2 6v4c0 1.813 1.006 3 3 3H3v1h8v-1H9c1.572 0 2.507-.727 3-2h1c1 0 1-.003 1-1.094V8.812C14 6.995 14 7 13 7h-1V6H2zm1 1h8v3c0 1.51-1.338 2-3 2H6c-1.662 0-3-.49-3-2V7zm9 1h1v2h-1V8z" fill="#8e755d"/>
</svg>
