<svg width="16" height="16" version="1.1" xmlns="http://www.w3.org/2000/svg">
 <defs>
  <style id="current-color-scheme" type="text/css">
   .ColorScheme-Text { color:#191410; } .ColorScheme-Highlight { color:#ac9680; } .ColorScheme-NeutralText { color:#8e755d; } .ColorScheme-PositiveText { color:#ac957f; } .ColorScheme-NegativeText { color:#695644; }
  </style>
 </defs>
 <path d="M6 2v12h1V8.62A3.972 3.972 0 0 0 10 10a4 4 0 0 0 0-8 3.972 3.972 0 0 0-3 1.38V2H6zm4 1a3 3 0 1 1 0 6 3 3 0 0 1 0-6zM3 7a1 1 0 0 0-1 1 1 1 0 0 0 1 1 1 1 0 0 0 1-1 1 1 0 0 0-1-1z" fill="#8e755d" overflow="visible" stroke-width=".1"/>
</svg>
