<svg width="16" height="16" version="1.1" xmlns="http://www.w3.org/2000/svg">
 <defs>
  <style id="current-color-scheme" type="text/css">
   .ColorScheme-Text { color:#191410; } .ColorScheme-Highlight { color:#ac9680; } .ColorScheme-NeutralText { color:#8e755d; } .ColorScheme-PositiveText { color:#ac957f; } .ColorScheme-NegativeText { color:#695644; }
  </style>
 </defs>
 <path d="M3 3c-.554 0-1 .446-1 1v8c0 .554.446 1 1 1h10c.554 0 1-.446 1-1V4c0-.554-.446-1-1-1zm5.5 1a.499.499 0 1 1 0 1 .499.499 0 1 1 0-1m2 0a.499.499 0 1 1 0 1 .499.499 0 1 1 0-1m2 0a.499.499 0 1 1 0 1 .499.499 0 1 1 0-1M3 6h10v6H3z" fill="#ac957f"/>
</svg>
