<svg width="16" height="16" version="1.1" xmlns="http://www.w3.org/2000/svg">
 <defs>
  <style id="current-color-scheme" type="text/css">
   .ColorScheme-Text { color:#191410; } .ColorScheme-Highlight { color:#ac9680; } .ColorScheme-NeutralText { color:#8e755d; } .ColorScheme-PositiveText { color:#ac957f; } .ColorScheme-NegativeText { color:#695644; }
  </style>
 </defs>
 <path d="M2 2v1h12V2zm.5 2a.499.499 0 1 0 0 1 .499.499 0 1 0 0-1M4 4v1h9V4zm0 2v1h4V6zM2.5 9a.499.499 0 1 0 0 1 .499.499 0 1 0 0-1M4 9v1h9V9zm0 2v1h8v-1zm-2 2v1h12v-1z" class="ColorScheme-Text" fill="currentColor"/>
</svg>
