<svg width="22" height="22" version="1.1" xmlns="http://www.w3.org/2000/svg">
 <defs>
  <style id="current-color-scheme" type="text/css">
   .ColorScheme-Text { color:#191410; } .ColorScheme-Highlight { color:#ac9680; } .ColorScheme-NeutralText { color:#8e755d; } .ColorScheme-PositiveText { color:#ac957f; } .ColorScheme-NegativeText { color:#695644; }
  </style>
 </defs>
 <path d="M4 3c-.554 0-1 .446-1 1v14c0 .554.446 1 1 1h11c.554 0 1-.446 1-1v-1h2c.554 0 1-.446 1-1v-3a.975.975 0 0 0-.152-.5A.975.975 0 0 0 19 12V9a.975.975 0 0 0-.152-.5A.975.975 0 0 0 19 8V5c0-.554-.446-1-1-1h-2c0-.554-.446-1-1-1H4zm0 1h11v14H4V4zm1 1v3h9V5H5zm11 0h2v3h-2V5zm0 4h2v3h-2V9zM5 10v1h9v-1H5zm0 2v1h9v-1H5zm11 1h2v3h-2v-3zM5 14v1h9v-1H5zm0 2v1h9v-1H5z" fill="#937960"/>
</svg>
