<svg width="22" height="22" version="1.1" xmlns="http://www.w3.org/2000/svg">
 <defs>
  <style id="current-color-scheme" type="text/css">
   .ColorScheme-Text { color:#191410; } .ColorScheme-Highlight { color:#ac9680; } .ColorScheme-NeutralText { color:#8e755d; } .ColorScheme-PositiveText { color:#ac957f; } .ColorScheme-NegativeText { color:#695644; }
  </style>
 </defs>
 <path d="M5 3c-.554 0-1 .446-1 1v14c0 .554.446 1 1 1h12c.554 0 1-.446 1-1V4c0-.554-.446-1-1-1H5zm0 1h12v14H5V4zm1 2v1h10V6H6zm0 3v1h10V9H6zm0 3v1h10v-1H6zm0 3v1h10v-1H6z" fill="#715d4a" fill-opacity=".749"/>
 <path d="M5 3c-.554 0-1 .446-1 1v14c0 .554.446 1 1 1h12c.554 0 1-.446 1-1V4c0-.554-.446-1-1-1H5zm0 1h12v14H5V4zm1 2v1h10V6H6zm0 3v1h10V9H6zm0 3v1h10v-1H6zm0 3v1h10v-1H6z" fill="#191410" fill-opacity=".749" opacity=".3"/>
</svg>
