<svg width="22" height="22" version="1.1" xmlns="http://www.w3.org/2000/svg">
 <defs>
  <style id="current-color-scheme" type="text/css">
   .ColorScheme-Text { color:#191410; } .ColorScheme-Highlight { color:#ac9680; } .ColorScheme-NeutralText { color:#8e755d; } .ColorScheme-PositiveText { color:#ac957f; } .ColorScheme-NegativeText { color:#695644; }
  </style>
 </defs>
 <g color="#382e25" fill="#8e755d">
  <path d="M5 8v3h1v-1h4v1h1V8h-1v1H6V8H5zm6 6v3h1v-1h4v1h1v-3h-1v1h-4v-1h-1z"/>
  <path d="M6 3S5 3 5 4H3v15h16V4h-2c0-1-1-1-1-1h-3s-1 0-1 1h-2c0-1-1-1-1-1H6zm0 1h3v1H6V4zm7 0h3v1h-3V4zM4 7h14v11H4V7z"/>
 </g>
</svg>
