<svg width="22" height="22" version="1.1" xmlns="http://www.w3.org/2000/svg">
 <defs>
  <style id="current-color-scheme" type="text/css">
   .ColorScheme-Text { color:#191410; } .ColorScheme-Highlight { color:#ac9680; } .ColorScheme-NeutralText { color:#8e755d; } .ColorScheme-PositiveText { color:#ac957f; } .ColorScheme-NegativeText { color:#695644; }
  </style>
 </defs>
 <path d="M7 3v1h9V3H7zm9 1v1h1V4h-1zm1 1v1h1V5h-1zm1 1v1h1V6h-1zM7 4H6v1h1V4zM6 5H5v1h1V5zM5 6H4v1h1V6zM4 7H3v8h1V7zm0 8v1h1v-1H4zm1 1v1h1v-1H5zm1 1v1h1v-1H6zm1 1v1h9v-1H7zm9 0h1v-1h-1v1zm1-1h1v-1h-1v1zm1-1h1v-1h-1v1z" fill="#ac9680" stroke-width="2"/>
</svg>
