<svg width="22" height="22" version="1.1" xmlns="http://www.w3.org/2000/svg">
 <defs>
  <style id="current-color-scheme" type="text/css">
   .ColorScheme-Text { color:#191410; } .ColorScheme-Highlight { color:#ac9680; } .ColorScheme-NeutralText { color:#8e755d; } .ColorScheme-PositiveText { color:#ac957f; } .ColorScheme-NegativeText { color:#695644; }
  </style>
 </defs>
 <path d="M3 3.5v15h16v-15H3zm1 1h1v1H4v-1zm2 0h10V10H6V4.5zm11 0h1v1h-1v-1zm-13 3h1v1H4v-1zm13 0h1v1h-1v-1zm-13 3h1v1H4v-1zm13 0h1v1h-1v-1zM6 12h10v5.5H6V12zm-2 1.5h1v1H4v-1zm13 0h1v1h-1v-1zm-13 3h1v1H4v-1zm13 0h1v1h-1v-1z" fill="#ac9680" overflow="visible" style="filter-blend-mode:normal;filter-gaussianBlur-deviation:0;isolation:auto;mix-blend-mode:normal"/>
</svg>
