<svg width="22" height="22" version="1.1" xmlns="http://www.w3.org/2000/svg">
 <defs>
  <style id="current-color-scheme" type="text/css">
   .ColorScheme-Text { color:#191410; } .ColorScheme-Highlight { color:#ac9680; } .ColorScheme-NeutralText { color:#8e755d; } .ColorScheme-PositiveText { color:#ac957f; } .ColorScheme-NegativeText { color:#695644; }
  </style>
 </defs>
 <path d="M11 3a4 4 0 0 0-3.87 3H10v2H7v2h3v2H7.133A4 4 0 0 0 11 15a4 4 0 0 0 3.87-3H12v-2h3V8h-3V6h2.867A4 4 0 0 0 11 3zm-6 9a6 5 0 0 0 5 4.93V17l-2 2h6l-2-2v-.076A6 5 0 0 0 17 12h-1a5 4 0 0 1-5 4 5 4 0 0 1-5-4H5z" fill="#937960" fill-rule="evenodd"/>
</svg>
