<svg viewBox="0 0 16 16" xmlns="http://www.w3.org/2000/svg">
 <defs>
  <style id="current-color-scheme" type="text/css">
   .ColorScheme-Text { color:#ccbeb1; } .ColorScheme-Highlight { color:#ac9680; } .ColorScheme-NeutralText { color:#8e755d; } .ColorScheme-PositiveText { color:#ac957f; } .ColorScheme-NegativeText { color:#695644; }
  </style>
 </defs>
 <path class="ColorScheme-Text" d="m2 2v5h5v-5h-5zm7 0v5h5v-5h-5zm-6 1h3v3h-3v-3zm7 0h3v3h-3v-3zm-8 6v5h5v-5h-5zm1 1h3v3h-3v-3z" fill="currentColor"/>
 <path class="ColorScheme-Highlight" d="m11.5 8a1.5 1.5 0 0 0-1.5 1.5v1.5h-1v3h5v-3h-1v-1.5a1.5 1.5 0 0 0-1.5-1.5m0 1a0.5 0.5 0 0 1 0.5 0.5v1.5h-1v-1.5a0.5 0.5 0 0 1 0.5-0.5" fill="currentColor"/>
</svg>
