<svg viewBox="0 0 16 16" xmlns="http://www.w3.org/2000/svg">
 <defs>
  <style id="current-color-scheme" type="text/css">
   .ColorScheme-Text { color:#ccbeb1; } .ColorScheme-Highlight { color:#ac9680; } .ColorScheme-NeutralText { color:#8e755d; } .ColorScheme-PositiveText { color:#ac957f; } .ColorScheme-NegativeText { color:#695644; }
  </style>
 </defs>
 <path class="ColorScheme-Text" d="m2 2v3h1v-2h3v2h1v-2h2v2h1v-2h3v2h1v-3h-12zm8 4 2 4 2-4h-4zm-8 4v4h12v-4h-1v3h-3v-3h-1v3h-2v-3h-1v3h-3v-3h-1z" fill="currentColor"/>
 <path class="ColorScheme-Highlight" d="m2 5v1h1.281l-1.281 1.281v1.438l2.719-2.719h2.563l-3 3h-2.281v1h7v-1.719l-0.719 0.719h-2.563l3-3h0.281v-1h-6z" fill="currentColor"/>
</svg>
