<svg version="1.1" viewBox="0 0 16 16" xmlns="http://www.w3.org/2000/svg">
 <defs>
  <style id="current-color-scheme" type="text/css">
   .ColorScheme-Text { color:#ccbeb1; } .ColorScheme-Highlight { color:#ac9680; } .ColorScheme-NeutralText { color:#8e755d; } .ColorScheme-PositiveText { color:#ac957f; } .ColorScheme-NegativeText { color:#695644; }
  </style>
 </defs>
 <g transform="translate(-421.71 -531.79)" fill="#ccbeb1">
  <path class="ColorScheme-ViewBackground" d="m436.71 532.79h-6v1h5v5h-5v1h5v5h-5v1h6v-13zm-7 0h-5v1h5v-1zm0 6h-5v1h5v-1zm0 6h-5v1h5v-1z"/>
  <path class="ColorScheme-Text" d="m424.71 532.79v13h-1v-13z"/>
  <path class="ColorScheme-Text" d="m435.71 544.79h-5v-5h5v5zm0-6h-5v-5h5v5zm-6 6h-5v-5h5v5zm0-6h-5v-5h5v5z" fill-opacity=".5"/>
 </g>
</svg>
