<svg viewBox="0 0 16 16" xmlns="http://www.w3.org/2000/svg">
 <defs>
  <style id="current-color-scheme" type="text/css">
   .ColorScheme-Text { color:#ccbeb1; } .ColorScheme-Highlight { color:#ac9680; } .ColorScheme-NeutralText { color:#8e755d; } .ColorScheme-PositiveText { color:#ac957f; } .ColorScheme-NegativeText { color:#695644; }
  </style>
 </defs>
 <path class="ColorScheme-Text" d="m2 2v12h12v-12h-12z" fill="currentColor"/>
 <path d="m4 2-2 2 2 2 2-2-2-2zm2 2 2 2 2-2-2-2-2 2zm4 0 2 2 2-2-2-2-2 2zm2 2-2 2 2 2 2-2-2-2zm0 4-2 2 2 2 2-2-2-2zm-2 2-2-2-2 2 2 2 2-2zm-4 0-2-2-2 2 2 2 2-2zm-2-2 2-2-2-2-2 2 2 2zm2-2 2 2 2-2-2-2-2 2z" fill="#e6dfd9"/>
</svg>
