<svg version="1.1" viewBox="0 0 16 16" xmlns="http://www.w3.org/2000/svg">
 <defs>
  <style id="current-color-scheme" type="text/css">
   .ColorScheme-Text { color:#ccbeb1; } .ColorScheme-Highlight { color:#ac9680; } .ColorScheme-NeutralText { color:#8e755d; } .ColorScheme-PositiveText { color:#ac957f; } .ColorScheme-NegativeText { color:#695644; }
  </style>
 </defs>
 <g transform="translate(-421.71 -531.79)" fill="#ccbeb1">
  <path class="ColorScheme-Text" transform="translate(421.71 531.79)" d="m2 2v3h3v-3h-3zm9 0v3h3v-3h-3zm-8 1h1v1h-1v-1zm3 0v1h1v-1h-1zm3 0v1h1v-1h-1zm3 0h1v1h-1v-1zm-9 3v1h1v-1h-1zm9 0v1h1v-1h-1zm-9 3v1h1v-1h-1zm9 0v1h1v-1h-1zm-10 2v3h3v-3h-3zm1 1h1v1h-1v-1zm3 0v1h1v-1h-1zm3 0v1h1v-1h-1z"/>
  <path class="ColorScheme-Highlight" d="m431.71 541.79v4h4v-4h-4zm1 1h2v2h-2v-2z"/>
 </g>
</svg>
