<svg viewBox="0 0 16 16" xmlns="http://www.w3.org/2000/svg">
 <defs>
  <style id="current-color-scheme" type="text/css">
   .ColorScheme-Text { color:#ccbeb1; } .ColorScheme-Highlight { color:#ac9680; } .ColorScheme-NeutralText { color:#8e755d; } .ColorScheme-PositiveText { color:#ac957f; } .ColorScheme-NegativeText { color:#695644; }
  </style>
 </defs>
 <path class="ColorScheme-Text" d="m8 2a6 6 0 0 0-4.002 1.5371 0.5 0.5 0 0 0 0.0019531-0.037109 0.5 0.5 0 0 0-0.5-0.5 0.5 0.5 0 0 0-0.5 0.5 0.5 0.5 0 0 0 0.5 0.5 0.5 0.5 0 0 0 0.039062-0.0019531 6 6 0 0 0-1.5391 4.002 6 6 0 0 0 1.5371 4.002 0.5 0.5 0 0 0-0.037109-0.001953 0.5 0.5 0 0 0-0.5 0.5 0.5 0.5 0 0 0 0.5 0.5 0.5 0.5 0 0 0 0.5-0.5 0.5 0.5 0 0 0-0.0019531-0.039062 6 6 0 0 0 4.002 1.5391 6 6 0 0 0 4.002-1.5371 0.5 0.5 0 0 0-0.001953 0.037109 0.5 0.5 0 0 0 0.5 0.5 0.5 0.5 0 0 0 0.5-0.5 0.5 0.5 0 0 0-0.5-0.5 0.5 0.5 0 0 0-0.039062 0.001953 6 6 0 0 0 1.5391-4.002 6 6 0 0 0-1.5371-4.002 0.5 0.5 0 0 0 0.037109 0.0019531 0.5 0.5 0 0 0 0.5-0.5 0.5 0.5 0 0 0-0.5-0.5 0.5 0.5 0 0 0-0.5 0.5 0.5 0.5 0 0 0 0.001953 0.039062 6 6 0 0 0-4.002-1.5391zm0 1a5 5 0 0 1 5 5 5 5 0 0 1-5 5 5 5 0 0 1-5-5 5 5 0 0 1 5-5zm0 4a1 1 0 0 0-1 1 1 1 0 0 0 1 1 1 1 0 0 0 1-1 1 1 0 0 0-1-1z" fill="currentColor"/>
</svg>
