<svg width="64" height="64" version="1.1" viewBox="0 0 16.933 16.933" xmlns="http://www.w3.org/2000/svg">
  <defs>
    <!-- Background gradient -->
    <linearGradient id="bg" x1="8.5" x2="8.5" y1="0" y2="16.933" gradientUnits="userSpaceOnUse">
      <stop stop-color="#2e3440" offset="0"/>
      <stop stop-color="#4c566a" offset="1"/>
    </linearGradient>

    <!-- Shadow -->
    <filter id="shadow" x="-.05" y="-.05" width="1.1" height="1.1">
      <feGaussianBlur stdDeviation="0.3"/>
    </filter>

    <!-- Nord gradients -->
    <linearGradient id="arrowGradient" x1="0" x2="1" y1="0" y2="1">
      <stop stop-color="#5e81ac" offset="0"/>
      <stop stop-color="#88c0d0" offset="1"/>
    </linearGradient>
    <linearGradient id="fileGradient" x1="0" x2="0" y1="0" y2="1">
      <stop stop-color="#a3be8c" offset="0"/>
      <stop stop-color="#8fbcbb" offset="1"/>
    </linearGradient>
  </defs>

  <!-- Outer shadowed container -->
  <g transform="translate(-.00025 -.11386)">
    <rect transform="matrix(.99138 0 0 1 .072989 .0019055)"
          x=".79375" y=".90545" width="15.346" height="15.346"
          rx="3.0526" ry="3.0526"
          filter="url(#shadow)" opacity=".15"/>
  </g>

  <!-- Background -->
  <rect x=".92602" y=".92602" width="15.081" height="15.081"
        rx="3.0536" ry="3.0535" fill="url(#bg)" />

  <!-- File icon -->
  <g transform="translate(4.5, 4)">
    <rect x="0" y="0" width="4.5" height="6" rx="0.5" fill="url(#fileGradient)" stroke="#2e3440" stroke-width="0.2"/>
    <polyline points="0.7,1.5 3.8,1.5" stroke="#2e3440" stroke-width="0.2"/>
    <polyline points="0.7,2.5 3.8,2.5" stroke="#2e3440" stroke-width="0.2"/>
    <polyline points="0.7,3.5 2.8,3.5" stroke="#2e3440" stroke-width="0.2"/>
  </g>

  <!-- Send/Receive Arrows -->
  <g transform="translate(9.2, 6)" fill="url(#arrowGradient)" stroke="#2e3440" stroke-width="0.2">
    <!-- Send arrow -->
    <polygon points="0,0.5 1.5,1.5 0,2.5 0.4,1.7  -1.2,1.7 -1.2,1.3 0.4,1.3" />
    <!-- Receive arrow -->
    <polygon points="0,4.5 -1.5,3.5 0,2.5 -0.4,3.3 1.2,3.3 1.2,3.7 -0.4,3.7" />
  </g>
</svg>
