<svg width="22" height="22" version="1.1" viewBox="0 0 22 22" xmlns="http://www.w3.org/2000/svg">
 <defs>
  <style id="current-color-scheme" type="text/css">
   .ColorScheme-Text { color:#ccbeb1; } .ColorScheme-Highlight { color:#ac9680; } .ColorScheme-NeutralText { color:#8e755d; } .ColorScheme-PositiveText { color:#ac957f; } .ColorScheme-NegativeText { color:#695644; }
  </style>
 </defs>
 <g class="ColorScheme-NegativeText" transform="translate(3,3)" fill="currentColor">
  <path class="ColorScheme-NegativeText" d="m2 0c-1.108 0-2 0.892-2 2v12c0 1.108 0.892 2 2 2h12c1.108 0 2-0.892 2-2v-12c0-1.108-0.892-2-2-2zm0 3h12c0.554 0 1 0.446 1 1v10c0 0.554-0.446 1-1 1h-12c-0.554 0-1-0.446-1-1v-10c0-0.554 0.446-1 1-1z"/>
  <path class="ColorScheme-NegativeText" d="m5 8h6c0.554 0 1 0.446 1 1s-0.446 1-1 1h-6c-0.554 0-1-0.446-1-1s0.446-1 1-1z"/>
 </g>
</svg>
