<svg viewBox="0 0 22 22" xmlns="http://www.w3.org/2000/svg">
 <defs>
  <style id="current-color-scheme" type="text/css">
   .ColorScheme-Text { color:#ccbeb1; } .ColorScheme-Highlight { color:#ac9680; } .ColorScheme-NeutralText { color:#8e755d; } .ColorScheme-PositiveText { color:#ac957f; } .ColorScheme-NegativeText { color:#695644; }
  </style>
 </defs>
 <path class="ColorScheme-Text" d="m3 3v3h1v7.9961l-0.99609 0.99609h-0.003906v4.0078h4.0078v-0.003906l1-1h7.9922v1.0039h3v-3h-3v1h-6.9961l9.9961-9.9961-0.001953-0.001953 0.001953-0.001953-4-4-0.001953 0.001953-0.001953-0.001953-9.9961 9.9961v-6.9961h1v-3h-3m1 1h1v1h-1v-1m10.998 0.41211 2.5898 2.5898-8.793 8.793-2.5898-2.5898 8.793-8.793m2.002 12.588h1v1h-1v-1" fill="currentColor"/>
</svg>
