<svg viewBox="0 0 22 22" xmlns="http://www.w3.org/2000/svg">
 <defs>
  <style id="current-color-scheme" type="text/css">
   .ColorScheme-Text { color:#ccbeb1; } .ColorScheme-Highlight { color:#ac9680; } .ColorScheme-NeutralText { color:#8e755d; } .ColorScheme-PositiveText { color:#ac957f; } .ColorScheme-NegativeText { color:#695644; }
  </style>
 </defs>
 <path class="ColorScheme-Text" d="m11 5a8 6 0 0 0-8 6 8 6 0 0 0 8 6 8 6 0 0 0 8-6 8 6 0 0 0-8-6m0 1a7 5 0 0 1 7 5 7 5 0 0 1-7 5 7 5 0 0 1-7-5 7 5 0 0 1 7-5" fill="currentColor"/>
</svg>
