<svg viewBox="0 0 22 22" xmlns="http://www.w3.org/2000/svg">
 <defs>
  <style id="current-color-scheme" type="text/css">
   .ColorScheme-Text { color:#ccbeb1; } .ColorScheme-Highlight { color:#ac9680; } .ColorScheme-NeutralText { color:#8e755d; } .ColorScheme-PositiveText { color:#ac957f; } .ColorScheme-NegativeText { color:#695644; }
  </style>
 </defs>
 <path class="ColorScheme-Text" d="m11 3 3 6h5l-4 4 1 6-5-3-5 3 1-6-4-4h5l3-6zm-2 0v1h-6v-1h6zm-1 2v1h-5v-1h5zm-1 2v1h-4v-1h4zm-2 5v1h-2v-1h2zm1 2v1h-3v-1h3zm-1 2v1h-2v-1h2zm0 2v1h-2v-1h2z" fill="currentColor"/>
</svg>
