<svg version="1.1" viewBox="0 0 22 22" xmlns="http://www.w3.org/2000/svg">
 <defs>
  <style id="current-color-scheme" type="text/css">
   .ColorScheme-Text { color:#ccbeb1; } .ColorScheme-Highlight { color:#ac9680; } .ColorScheme-NeutralText { color:#8e755d; } .ColorScheme-PositiveText { color:#ac957f; } .ColorScheme-NegativeText { color:#695644; }
  </style>
 </defs>
 <path class="ColorScheme-Text" d="m3 3v16h16v-16zm1 1h4v2h-4zm5 0h4v2h-4v-1zm5 0h4v2h-4v-1zm-10 3h4v2h-4zm5 0h9v8.0996h-9v-3.0996zm-5 3h4v2h-4zm0 3h4v2.0996h-4zm0 3.0996h4v1.9004h-4zm5 0h4v1.9004h-4v-0.90039zm5 0h4v1.9004h-4v-0.90039z" fill="currentColor"/>
</svg>
