<svg viewBox="0 0 22 22" xmlns="http://www.w3.org/2000/svg">
 <defs>
  <style id="current-color-scheme" type="text/css">
   .ColorScheme-Text { color:#ccbeb1; } .ColorScheme-Highlight { color:#ac9680; } .ColorScheme-NeutralText { color:#8e755d; } .ColorScheme-PositiveText { color:#ac957f; } .ColorScheme-NegativeText { color:#695644; }
  </style>
 </defs>
 <path class="ColorScheme-Text" d="m3 3v16h16v-16h-16zm3 2h10v12h-10v-12zm-2 1h1v1h-1v-1zm13 0h1v1h-1v-1zm-13 2h1v1h-1v-1zm5 0v6l4-3-4-3zm8 0h1v1h-1v-1zm-13 2h1v1h-1v-1zm13 0h1v1h-1v-1zm-13 2h1v1h-1v-1zm13 0h1v1h-1v-1zm-13 2h1v1h-1v-1zm13 0h1v1h-1v-1zm-13 2h1v1h-1v-1zm13 0h1v1h-1v-1z" fill="currentColor"/>
</svg>
