<svg viewBox="0 0 22 22" xmlns="http://www.w3.org/2000/svg">
 <defs>
  <style id="current-color-scheme" type="text/css">
   .ColorScheme-Text { color:#ccbeb1; } .ColorScheme-Highlight { color:#ac9680; } .ColorScheme-NeutralText { color:#8e755d; } .ColorScheme-PositiveText { color:#ac957f; } .ColorScheme-NegativeText { color:#695644; }
  </style>
 </defs>
 <path class="ColorScheme-Text" d="m2 3v16h18v-16h-18zm1 1h1v14h-1v-14zm2 0h1a1 1 0 0 0 1 1 1 1 0 0 0 1-1h8a1 1 0 0 0 1 1 1 1 0 0 0 1-1h1v14h-1a1 1 0 0 0-1-1 1 1 0 0 0-1 1h-8a1 1 0 0 0-1-1 1 1 0 0 0-1 1h-1v-14zm0 7a7 7 0 0 0 7 7 7 7 0 0 0 7-7 7 7 0 0 0-7-7 7 7 0 0 0-7 7zm7-6a6 6 0 0 1 6 6 6 6 0 0 1-6 6 6 6 0 0 1-6-6 6 6 0 0 1 6-6zm0 5a1 1 0 0 0-1 1 1 1 0 0 0 1 1 1 1 0 0 0 1-1 1 1 0 0 0-1-1z" fill="currentColor"/>
</svg>
