<svg viewBox="0 0 22 22" xmlns="http://www.w3.org/2000/svg">
 <defs>
  <style id="current-color-scheme" type="text/css">
   .ColorScheme-Text { color:#ccbeb1; } .ColorScheme-Highlight { color:#ac9680; } .ColorScheme-NeutralText { color:#8e755d; } .ColorScheme-PositiveText { color:#ac957f; } .ColorScheme-NegativeText { color:#695644; }
  </style>
 </defs>
 <path class="ColorScheme-Text" d="m18.293 3-3.5 3.5-1.5-1.5-3.793 3.793 3.707 3.707 3.793-3.793-1.5-1.5 3.5-3.5-0.70703-0.70703zm-9.5 6.5-2.793 2.793 1.5 1.5-4.5 4.5 0.70703 0.70703 4.5-4.5 1.5 1.5 2.793-2.793-3.707-3.707z" fill="currentColor"/>
 <path class="ColorScheme-NegativeText" d="m14.834 14-0.83398 0.83398 1.666 1.666-1.666 1.666 0.83398 0.83398 1.666-1.666 1.666 1.666 0.83398-0.83398-1.666-1.666 1.666-1.666-0.83398-0.83398-1.666 1.666-1.666-1.666z" fill="currentColor"/>
</svg>
