<svg version="1.1" viewBox="0 0 22 22" xmlns="http://www.w3.org/2000/svg">
 <defs>
  <style id="current-color-scheme" type="text/css">
   .ColorScheme-Text { color:#ccbeb1; } .ColorScheme-Highlight { color:#ac9680; } .ColorScheme-NeutralText { color:#8e755d; } .ColorScheme-PositiveText { color:#ac957f; } .ColorScheme-NegativeText { color:#695644; }
  </style>
 </defs>
 <path class="ColorScheme-Text" d="m6 4v1h10v-1zm-2 2v10h1v-10zm13 0v10h1v-10zm-11 11v1h10v-1z" fill="currentColor"/>
 <path class="ColorScheme-Highlight" d="m2 2v4h4v-4zm14 0v4h4v-4zm-13 1h2v2h-2zm14 0h2v2h-2zm-15 13v4h4v-4zm14 0v4h4v-4zm-13 1h2v2h-2zm14 0h2v2h-2z" fill="currentColor"/>
</svg>
