<svg width="64" height="64" version="1.1" viewBox="0 0 16.933 16.933" xmlns="http://www.w3.org/2000/svg">
  <defs>
    <!-- Background Gradient -->
    <linearGradient id="bg" x1="8.5" x2="8.5" y1="0" y2="16.933" gradientUnits="userSpaceOnUse">
      <stop stop-color="#40352A" offset="0"/>
      <stop stop-color="#584939" offset="1"/>
    </linearGradient>

    <!-- Shadow Filter -->
    <filter id="shadow" x="-.05" y="-.05" width="1.1" height="1.1" color-interpolation-filters="sRGB">
      <feGaussianBlur stdDeviation="0.3"/>
    </filter>

    <!-- Accent Colors -->
    <linearGradient id="playGradient" x1="0" x2="1" y1="0" y2="1">
      <stop offset="0%" stop-color="#81A1C1"/>
      <stop offset="100%" stop-color="#8FBCBB"/>
    </linearGradient>
    <linearGradient id="stripGradient" x1="0" x2="0" y1="0" y2="1">
      <stop stop-color="#E8E9E4" offset="0"/>
      <stop stop-color="#E8E9E4" offset="1"/>
    </linearGradient>
  </defs>

  <!-- Shadowed Base -->
  <g transform="translate(-.00025 -.11386)">
    <rect transform="matrix(.99138 0 0 1 .072989 .0019055)" x=".79375" y=".90545" width="15.346" height="15.346"
      rx="3.0526" ry="3.0526" filter="url(#shadow)" opacity=".15"/>
  </g>

  <!-- Background -->
  <rect x=".92602" y=".92602" width="15.081" height="15.081"
        rx="3.0536" ry="3.0535" fill="url(#bg)" />

  <!-- Filmstrip -->
  <g transform="translate(4, 4)">
    <rect x="0" y="0" width="8.5" height="8.5" rx="0.5" fill="url(#stripGradient)" stroke="#40352A" stroke-width="0.3"/>

    <!-- Perforations (top and bottom) -->
    <circle cx="0.8" cy="0.8" r="0.35" fill="#584939"/>
    <circle cx="2.4" cy="0.8" r="0.35" fill="#584939"/>
    <circle cx="4.0" cy="0.8" r="0.35" fill="#584939"/>
    <circle cx="5.6" cy="0.8" r="0.35" fill="#584939"/>
    <circle cx="7.2" cy="0.8" r="0.35" fill="#584939"/>

    <circle cx="0.8" cy="7.7" r="0.35" fill="#584939"/>
    <circle cx="2.4" cy="7.7" r="0.35" fill="#584939"/>
    <circle cx="4.0" cy="7.7" r="0.35" fill="#584939"/>
    <circle cx="5.6" cy="7.7" r="0.35" fill="#584939"/>
    <circle cx="7.2" cy="7.7" r="0.35" fill="#584939"/>
  </g>

  <!-- Play Button -->
  <polygon points="9,6.5 12,8.5 9,10.5"
           fill="url(#playGradient)" stroke="#40352A" stroke-width="0.2" stroke-linejoin="round"/>
</svg>
