<svg viewBox="0 0 24 24" xmlns="http://www.w3.org/2000/svg">
 <defs>
  <style id="current-color-scheme" type="text/css">
   .ColorScheme-Text { color:#E8E9E4; } .ColorScheme-Highlight { color:#8FBCBB; } .ColorScheme-NeutralText { color:#AC8E71; } .ColorScheme-PositiveText { color:#A3BE8C; } .ColorScheme-NegativeText { color:#BF616A; }
  </style>
 </defs>
 <path class="ColorScheme-Text" d="m6 4-1 1v1.30469l5 7.0625v3.671862l3 2.2266v-1.2461l-2-1.4844v-3.535198h-0.035156l-4.9648-7.0117v-0.98828h12v0.98828l-4.9648 7.0117h1.2246l4.7402-6.6953v-1.3047l-1-1h-12zm1 2 2 3v-2l2-1h-4z" fill="currentColor"/>
 <path d="m14.99 14-0.99023 0.99023 2.0098 2.0098-2.0098 2.0098 0.99023 0.99023 2.0098-2.0098 2.0098 2.0098 0.99023-0.99023-2.0098-2.0098 2.0098-2.0098-0.99023-0.99023-2.0098 2.0098-2.0098-2.0098z" fill="#BF616A"/>
</svg>
