<svg version="1.1" viewBox="0 0 24 24" xmlns="http://www.w3.org/2000/svg">
 <defs>
  <style id="current-color-scheme" type="text/css">
   .ColorScheme-Text { color:#E8E9E4; } .ColorScheme-Highlight { color:#8FBCBB; } .ColorScheme-NeutralText { color:#AC8E71; } .ColorScheme-PositiveText { color:#A3BE8C; } .ColorScheme-NegativeText { color:#BF616A; }
  </style>
 </defs>
 <g transform="translate(1,1)" fill="#E8E9E4">
  <path class="ColorScheme-Text" d="m3 3v16h3v-1h-2v-14h2v-1h-2zm13 0v1h2v8h1v-9h-1zm0 11v2h-2v1h2v2h1v-2h2v-1h-2v-2z"/>
  <path class="ColorScheme-Highlight" d="m5 5v5h5v-5zm7 0v5h5v-5zm-6 1h3v3h-3zm7 0h3v3h-3zm-8 6v5h5v-5zm7 0v3h1v-2h2v-1zm-6 1h3v3h-3z"/>
 </g>
</svg>
