<svg viewBox="0 0 24 24" xmlns="http://www.w3.org/2000/svg">
 <defs>
  <style id="current-color-scheme" type="text/css">
   .ColorScheme-Text { color:#E8E9E4; } .ColorScheme-Highlight { color:#8FBCBB; } .ColorScheme-NeutralText { color:#AC8E71; } .ColorScheme-PositiveText { color:#A3BE8C; } .ColorScheme-NegativeText { color:#BF616A; }
  </style>
 </defs>
 <g transform="translate(1,1)">
  <path class="ColorScheme-Text" d="m5 4a1 1 0 0 0-1 1 1 1 0 0 0 1 1 1 1 0 0 0 1-1 1 1 0 0 0-1-1zm3 0v2h11v-2h-11zm-3 6a1 1 0 0 0-1 1 1 1 0 0 0 1 1 1 1 0 0 0 1-1 1 1 0 0 0-1-1zm3 0v2h11v-2h-11zm-3 6a1 1 0 0 0-1 1 1 1 0 0 0 1 1 1 1 0 0 0 1-1 1 1 0 0 0-1-1zm3 0v2h11v-2h-11z" fill="currentColor"/>
 </g>
</svg>
