<svg viewBox="0 0 24 24" xmlns="http://www.w3.org/2000/svg">
 <defs>
  <style id="current-color-scheme" type="text/css">
   .ColorScheme-Text { color:#E8E9E4; } .ColorScheme-Highlight { color:#8FBCBB; } .ColorScheme-NeutralText { color:#AC8E71; } .ColorScheme-PositiveText { color:#A3BE8C; } .ColorScheme-NegativeText { color:#BF616A; }
  </style>
 </defs>
 <path class="ColorScheme-Text" d="m12 4v1h1v-1h-1zm0 3v1h1v-1h-1zm-2 2v5h5v-5h-5zm-6 2v1h1v-1h-1zm2 0v1h1v-1h-1zm2 0v1h1v-1h-1zm8 0v1h1v-1h-1zm3 0v1h1v-1h-1zm-7 4v1h1v-1h-1zm0 2v1h1v-1h-1zm0 2v1h1v-1h-1z" fill="currentColor"/>
</svg>
