<svg width="24" height="24" version="1.1" viewBox="0 0 24 24" xmlns="http://www.w3.org/2000/svg">
 <defs>
  <style id="current-color-scheme" type="text/css">
   .ColorScheme-Text { color:#E8E9E4; } .ColorScheme-Highlight { color:#8FBCBB; } .ColorScheme-NeutralText { color:#AC8E71; } .ColorScheme-PositiveText { color:#A3BE8C; } .ColorScheme-NegativeText { color:#BF616A; }
  </style>
 </defs>
 <path class="ColorScheme-Text" d="m4 4v3h1v-2h14v5h1v-6zm0 4v12h6v-1h-5v-10h8v1h1v-2zm2 3v1h4v-1zm0 3v1h2v-1zm0 2v1h4v-1z" fill="currentColor"/>
 <path d="m11 11v9h9v-9zm1 1h7v7h-7zm1 1v2h5v-2zm2 3v1h1v-1zm2 0v1h1v-1z" fill="#A3BE8C"/>
</svg>
