<svg width="16" height="16" version="1.1" xmlns="http://www.w3.org/2000/svg">
 <defs>
  <style id="current-color-scheme" type="text/css">
   .ColorScheme-Text { color:#40352A; } .ColorScheme-Highlight { color:#8FBCBB; } .ColorScheme-NeutralText { color:#AC8E71; } .ColorScheme-PositiveText { color:#A3BE8C; } .ColorScheme-NegativeText { color:#BF616A; }
  </style>
 </defs>
 <path d="M2 2v12h12V2zm1 1h4v1h1V3h5v10H3zm5 1v1h1V4zm0 1H7v1h1zm0 1v1h1V6zm0 1H7v1h1zm0 1v1h1V8zm0 1H7v2h2v-1H8z" fill="#BF616A"/>
 <path d="M2 2v12h12V2zm1 1h4v1h1V3h5v10H3zm5 1v1h1V4zm0 1H7v1h1zm0 1v1h1V6zm0 1H7v1h1zm0 1v1h1V8zm0 1H7v2h2v-1H8z" fill="#40352A" opacity=".2"/>
</svg>
