<svg width="16" height="16" version="1.1" xmlns="http://www.w3.org/2000/svg">
 <defs>
  <style id="current-color-scheme" type="text/css">
   .ColorScheme-Text { color:#40352A; } .ColorScheme-Highlight { color:#8FBCBB; } .ColorScheme-NeutralText { color:#AC8E71; } .ColorScheme-PositiveText { color:#A3BE8C; } .ColorScheme-NegativeText { color:#BF616A; }
  </style>
 </defs>
 <path d="M9.09 2L5.944 13.74l.967.26 3.146-11.74zM5.285 4L2.324 7.145 2 7.493l.324.346 2.943 3.162.715-.695-2.621-2.813L6 4.696zm5.43 0L10 4.695l2.639 2.797-2.621 2.813.715.695 2.943-3.162.324-.346-.324-.348z" fill="#BF616A" opacity=".5" stroke-width=".1"/>
 <path d="M9.09 2L5.944 13.74l.967.26 3.146-11.74zM5.285 4L2.324 7.145 2 7.493l.324.346 2.943 3.162.715-.695-2.621-2.813L6 4.696zm5.43 0L10 4.695l2.639 2.797-2.621 2.813.715.695 2.943-3.162.324-.346-.324-.348z" fill="#E8E9E4" opacity=".5" stroke-width=".1"/>
</svg>
