<svg width="16" height="16" version="1.1" xmlns="http://www.w3.org/2000/svg">
 <defs>
  <style id="current-color-scheme" type="text/css">
   .ColorScheme-Text { color:#40352A; } .ColorScheme-Highlight { color:#8FBCBB; } .ColorScheme-NeutralText { color:#AC8E71; } .ColorScheme-PositiveText { color:#A3BE8C; } .ColorScheme-NegativeText { color:#BF616A; }
  </style>
 </defs>
 <path d="m3 2.0001v4h-1v6.9999c0 0.554 0.44763 0.95751 1 1h11v-6.9999c0-0.554-0.446-1-1-1h-2.0002v-4zm1 1h5.9996v3h-0.99956c-0.47048-0.62732-1.2159-0.99755-2-1-0.78621 6.144e-4 -1.5283 0.37103-2 1h-1zm-1 4h9.9998v0.99996h-4.9996c-1.108 0-2 0.892-2 2s0.892 2 2 2h4.9996v0.99992h-9.9998zm6.0002 2c0.55229 0 1 0.44772 1 1s-0.44771 1-1 1c-0.55228 0-1-0.44772-1-1 0-0.55229 0.44772-1 1-1z" color="#40352A" fill="#8FBCBB"/>
</svg>
