<svg width="16" height="16" version="1.1" xmlns="http://www.w3.org/2000/svg">
 <defs>
  <style id="current-color-scheme" type="text/css">
   .ColorScheme-Text { color:#40352A; } .ColorScheme-Highlight { color:#8FBCBB; } .ColorScheme-NeutralText { color:#AC8E71; } .ColorScheme-PositiveText { color:#A3BE8C; } .ColorScheme-NegativeText { color:#BF616A; }
  </style>
 </defs>
 <g fill="#40352A">
  <path d="M8 2a6 6 0 1 0 0 12A6 6 0 0 0 8 2zm0 1a5 5 0 1 1 0 10A5 5 0 0 1 8 3z" overflow="visible"/>
  <path d="M8 4a4 4 0 0 0-4 4h2a2 2 0 0 1 2-2V4zm2 4a2 2 0 0 1-2 2v2a4 4 0 0 0 4-4h-2zM9 8a1 1 0 1 1-2 0 1 1 0 1 1 2 0z" overflow="visible"/>
 </g>
</svg>
