<svg width="16" height="16" version="1.1" xmlns="http://www.w3.org/2000/svg">
 <defs>
  <style id="current-color-scheme" type="text/css">
   .ColorScheme-Text { color:#40352A; } .ColorScheme-Highlight { color:#8FBCBB; } .ColorScheme-NeutralText { color:#AC8E71; } .ColorScheme-PositiveText { color:#A3BE8C; } .ColorScheme-NegativeText { color:#BF616A; }
  </style>
 </defs>
 <path d="M1.852.53v.793h.265V.529zm-.53.264v.529h.265v-.53zm1.06 0v.529h.264v-.53zm-1.588.264v.265h.264v-.265zm-.265.53v1.058c0 .48.267.794.794.794h-.53v.264H2.91V3.44h-.529c.416 0 .664-.193.794-.53h.265c.264 0 .264 0 .264-.289v-.29c0-.48 0-.48-.264-.48h-.265v-.264zm.265.264H2.91v.794c0 .4-.354.529-.793.529h-.53c-.44 0-.793-.13-.793-.53zm2.381.265h.265v.529h-.265z" fill="#AC8E71"/>
</svg>
