<svg width="16" height="16" version="1.1" xmlns="http://www.w3.org/2000/svg">
 <defs>
  <style id="current-color-scheme" type="text/css">
   .ColorScheme-Text { color:#40352A; } .ColorScheme-Highlight { color:#8FBCBB; } .ColorScheme-NeutralText { color:#AC8E71; } .ColorScheme-PositiveText { color:#A3BE8C; } .ColorScheme-NegativeText { color:#BF616A; }
  </style>
 </defs>
 <path d="m4 2v3h1v1.65a1.5 1.5 0 0 0-1 1.4121 1.5 1.5 0 0 0 1 1.4121v1.525h-1v3h3v-1.809a7 6 0 0 0 5 1.8086v-1a6 5 0 0 1-5.7695-3.6309 1.5 1.5 0 0 0 0.76953-1.3066 1.5 1.5 0 0 0-0.79883-1.3223 6 5 0 0 1 5.7988-3.7402v-1a7 6 0 0 0-5 1.8027v-1.803zm1 1h1v1h-1zm0 9h1v1h-1z" color="#584939" color-rendering="auto" fill="#EBCB8B" fill-rule="evenodd" image-rendering="auto" shape-rendering="auto" text-rendering="auto"/>
</svg>
