<svg width="16" height="16" version="1.1" xmlns="http://www.w3.org/2000/svg">
 <defs>
  <style id="current-color-scheme" type="text/css">
   .ColorScheme-Text { color:#40352A; } .ColorScheme-Highlight { color:#8FBCBB; } .ColorScheme-NeutralText { color:#AC8E71; } .ColorScheme-PositiveText { color:#A3BE8C; } .ColorScheme-NegativeText { color:#BF616A; }
  </style>
 </defs>
 <path d="M3 2v3H1v7.5c0 .831.669 1.5 1.5 1.5H15V2H4zm1 1h10v10H4V5zm1 1v1h8V4zM2 6h1v7h-.5a.499.499 0 0 1-.5-.5v-.6zm3 0v4h4V6zm5 0v1h3V6zm0 3v1h3V9zm-5 2v1h8v-1z" class="ColorScheme-Text" fill="currentColor"/>
</svg>
