<svg width="16" height="16" version="1.1" xmlns="http://www.w3.org/2000/svg">
 <defs>
  <style id="current-color-scheme" type="text/css">
   .ColorScheme-Text { color:#40352A; } .ColorScheme-Highlight { color:#8FBCBB; } .ColorScheme-NeutralText { color:#AC8E71; } .ColorScheme-PositiveText { color:#A3BE8C; } .ColorScheme-NegativeText { color:#BF616A; }
  </style>
 </defs>
 <path d="M8 2a6 6 0 1 0 0 12A6 6 0 0 0 8 2m0 1a5 5 0 1 1-.001 10.001A5 5 0 0 1 8 3m0 2a3 3 0 0 0-3 3 3 3 0 0 0 3 3 3 3 0 0 0 2.396-1.201l-.799-.6a2 2 0 0 1-1.597.8 2 2 0 0 1-2-2 2 2 0 0 1 2-2 2 2 0 0 1 1.6.801l.796-.6A3 3 0 0 0 8 5" class="ColorScheme-Text" fill="currentColor"/>
</svg>
