<svg width="16" height="16" version="1.1" xmlns="http://www.w3.org/2000/svg">
 <defs>
  <style id="current-color-scheme" type="text/css">
   .ColorScheme-Text { color:#40352A; } .ColorScheme-Highlight { color:#8FBCBB; } .ColorScheme-NeutralText { color:#AC8E71; } .ColorScheme-PositiveText { color:#A3BE8C; } .ColorScheme-NegativeText { color:#BF616A; }
  </style>
 </defs>
 <path d="M8 2a6 6 0 1 0 0 12A6 6 0 0 0 8 2m0 1a5 5 0 1 1-.001 10.001A5 5 0 0 1 8 3m0 1a4 4 0 0 0-4 4h2a2 2 0 0 1 2-2zm0 3a1 1 0 0 0-1 1 1 1 0 0 0 1 1 1 1 0 0 0 1-1 1 1 0 0 0-1-1m2 1a2 2 0 0 1-2 2v2a4 4 0 0 0 4-4z" fill="#A3BE8C"/>
</svg>
