<svg viewBox="0 0 16 16" xmlns="http://www.w3.org/2000/svg">
 <defs>
  <style id="current-color-scheme" type="text/css">
   .ColorScheme-Text { color:#E8E9E4; } .ColorScheme-Highlight { color:#8FBCBB; } .ColorScheme-NeutralText { color:#AC8E71; } .ColorScheme-PositiveText { color:#A3BE8C; } .ColorScheme-NegativeText { color:#BF616A; }
  </style>
 </defs>
 <path class="ColorScheme-Text" d="m2 2v12h7v-1h-2v-3h2v-1h-2v-3h2v3h1v-3h3v3h1v-7h-12zm1 1h3v2h-3v-2zm4 0h2v2h-2v-2zm3 0h3v2h-3v-2zm-7 3h3v3h-3v-3zm8 3v2h-2v1h2v2h1v-2h2v-1h-2v-2h-1zm-8 1h3v3h-3v-3z" fill="currentColor"/>
 <path d="m3 3h3v2h-3z" color="#40352A" fill="#81A1C1"/>a
</svg>
