<svg viewBox="0 0 16 16" xmlns="http://www.w3.org/2000/svg">
 <defs>
  <style id="current-color-scheme" type="text/css">
   .ColorScheme-Text { color:#E8E9E4; } .ColorScheme-Highlight { color:#8FBCBB; } .ColorScheme-NeutralText { color:#AC8E71; } .ColorScheme-PositiveText { color:#A3BE8C; } .ColorScheme-NegativeText { color:#BF616A; }
  </style>
 </defs>
 <path class="ColorScheme-Text" d="m8 3a6 5 0 0 0-6 5 6 5 0 0 0 6 5 6 5 0 0 0 6-5 6 5 0 0 0-6-5zm0 1a5 4 0 0 1 5 4 5 4 0 0 1-5 4 5 4 0 0 1-5-4 5 4 0 0 1 5-4z" fill="currentColor"/>
</svg>
