<svg version="1.1" viewBox="0 0 16 16" xmlns="http://www.w3.org/2000/svg">
 <defs>
  <style id="current-color-scheme" type="text/css">
   .ColorScheme-Text { color:#E8E9E4; } .ColorScheme-Highlight { color:#8FBCBB; } .ColorScheme-NeutralText { color:#AC8E71; } .ColorScheme-PositiveText { color:#A3BE8C; } .ColorScheme-NegativeText { color:#BF616A; }
  </style>
 </defs>
 <g class="ColorScheme-Text" fill="currentColor">
  <path d="m2 1c-0.554 0-1 0.446-1 1v4c0 0.554 0.446 1 1 1h4c0.554 0 1-0.446 1-1v-4c0-0.554-0.446-1-1-1zm0 1h4v4h-4z"/>
  <path d="m10 1c-0.554 0-1 0.446-1 1v4c0 0.554 0.446 1 1 1h4c0.554 0 1-0.446 1-1v-4c0-0.554-0.446-1-1-1zm0 1h4v4h-4z"/>
  <path d="m2 9c-0.554 0-1 0.446-1 1v4c0 0.554 0.446 1 1 1h4c0.554 0 1-0.446 1-1v-4c0-0.554-0.446-1-1-1zm0 1h4v4h-4z"/>
  <path d="m10 9c-0.554 0-1 0.446-1 1v4c0 0.554 0.446 1 1 1h4c0.554 0 1-0.446 1-1v-4c0-0.554-0.446-1-1-1zm0 1h4v4h-4z"/>
 </g>
</svg>
