<svg width="22" height="22" version="1.1" xmlns="http://www.w3.org/2000/svg">
 <defs>
  <style id="current-color-scheme" type="text/css">
   .ColorScheme-Text { color:#40352A; } .ColorScheme-Highlight { color:#8FBCBB; } .ColorScheme-NeutralText { color:#AC8E71; } .ColorScheme-PositiveText { color:#A3BE8C; } .ColorScheme-NegativeText { color:#BF616A; }
  </style>
 </defs>
 <path d="M7 3v11.504A2.5 2.5 0 0 0 5.5 14 2.5 2.5 0 0 0 3 16.5 2.5 2.5 0 0 0 5.5 19 2.5 2.5 0 0 0 8 16.5V7h10v5.504A2.5 2.5 0 0 0 16.5 12a2.5 2.5 0 0 0-2.5 2.5 2.5 2.5 0 0 0 2.5 2.5 2.5 2.5 0 0 0 2.5-2.5V3H7zm1 1h10v2H8V4z" fill="#EBCB8B"/>
</svg>
