<svg width="22" height="22" version="1.1" xmlns="http://www.w3.org/2000/svg">
 <defs>
  <style id="current-color-scheme" type="text/css">
   .ColorScheme-Text { color:#40352A; } .ColorScheme-Highlight { color:#8FBCBB; } .ColorScheme-NeutralText { color:#AC8E71; } .ColorScheme-PositiveText { color:#A3BE8C; } .ColorScheme-NegativeText { color:#BF616A; }
  </style>
 </defs>
 <path d="M3 3v12l-2 2h2v2h16v-2h2l-2-2.285V3H3zm1 1h14v9.572L14 9l-4 4-.5.5L9 13l-2-2-3 3V4zm3 1a2 2 0 0 0-2 2 2 2 0 0 0 2 2 2 2 0 0 0 2-2 2 2 0 0 0-2-2zm6.951 5.463L19 16h-7l-1-1-.793-.793.793-.791v-.002l2.951-2.951zM7 12.414l2 2v.002L10.584 16h-7.17L7 12.414zM4 17h14v1H4v-1z" fill="#8FBCBB" stroke-width="2"/>
</svg>
