<svg width="22" height="22" version="1.1" xmlns="http://www.w3.org/2000/svg">
 <defs>
  <style id="current-color-scheme" type="text/css">
   .ColorScheme-Text { color:#40352A; } .ColorScheme-Highlight { color:#8FBCBB; } .ColorScheme-NeutralText { color:#AC8E71; } .ColorScheme-PositiveText { color:#A3BE8C; } .ColorScheme-NegativeText { color:#BF616A; }
  </style>
 </defs>
 <path d="M3 3v16h16V3H3zm1 1h14v14H4V4zm1 1v1h1V5H5zm1 1v2h2V6H6zm2 0h1V5H8v1zm0 2v1h1V8H8zM6 8H5v1h1V8zm7-3v1h1V5h-1zm1 1v2h2V6h-2zm2 0h1V5h-1v1zm0 2v1h1V8h-1zm-2 0h-1v1h1V8zm-5 3v2h4v-2H9zm4 2v2h2v-2h-2zm2 2v2h2v-2h-2zm-6-2H7v2h2v-2zm-2 2H5v2h2v-2z" fill="#BF616A"/>
</svg>
