<svg width="16" height="16" version="1.1" xmlns="http://www.w3.org/2000/svg">
 <defs>
  <style id="current-color-scheme" type="text/css">
   .ColorScheme-Text { color:#40352A; } .ColorScheme-Highlight { color:#8FBCBB; } .ColorScheme-NeutralText { color:#AC8E71; } .ColorScheme-PositiveText { color:#A3BE8C; } .ColorScheme-NegativeText { color:#BF616A; }
  </style>
 </defs>
 <path d="M12.5 2A1.5 1.5 0 0 0 11 3.5 1.5 1.5 0 0 0 12.5 5 1.5 1.5 0 0 0 14 3.5 1.5 1.5 0 0 0 12.5 2m-5 1A5.5 5.5 0 0 0 2 8.5 5.5 5.5 0 0 0 7.5 14 5.5 5.5 0 0 0 13 8.5a5.5 5.5 0 0 0-1.283-3.523A2 2 0 0 1 12 6a2 2 0 0 1-2 2 2 2 0 0 1-2-2 2 2 0 0 1 2-2 2 2 0 0 1 1.053.303A5.5 5.5 0 0 0 7.5 3" color="#584939" fill="#81A1C1"/>
</svg>
