<svg width="22" height="22" version="1.1" xmlns="http://www.w3.org/2000/svg">
 <defs>
  <style id="current-color-scheme" type="text/css">
   .ColorScheme-Text { color:#40352A; } .ColorScheme-Highlight { color:#8FBCBB; } .ColorScheme-NeutralText { color:#AC8E71; } .ColorScheme-PositiveText { color:#A3BE8C; } .ColorScheme-NegativeText { color:#BF616A; }
  </style>
 </defs>
 <path d="M3 3v16h16V3H3zm1 1h14v2H4V4zm0 3h1v2H4V7zm2 0h1v2H6V7zm2 0h1v2H8V7zm2 0h1v2h-1V7zm2 0h1v2h-1V7zm2 0h1v2h-1V7zm2 0h2v1h-2V7zM4 10h14v2H4v-2zm0 3h1v2H4v-2zm2 0h1v2H6v-2zm2 0h1v2H8v-2zm2 0h1v2h-1v-2zm2 0h1v2h-1v-2zm2 0h1v2h-1v-2zm2 0h2v1h-2v-1zM4 16h14v2H4v-2z" fill="#A3BE8C" stroke-linecap="square" stroke-width="2"/>
</svg>
