<svg viewBox="0 0 22 22" xmlns="http://www.w3.org/2000/svg">
 <defs>
  <style id="current-color-scheme" type="text/css">
   .ColorScheme-Text { color:#E8E9E4; } .ColorScheme-Highlight { color:#8FBCBB; } .ColorScheme-NeutralText { color:#AC8E71; } .ColorScheme-PositiveText { color:#A3BE8C; } .ColorScheme-NegativeText { color:#BF616A; }
  </style>
 </defs>
 <path class="ColorScheme-Text" d="m5 5v1h1v-1h-1zm2 0v1h1v-1h-1zm2 0v1h1v-1h-1zm3 0v1h1v-1h-1zm2 0v1h1v-1h-1zm2 0v1h1v-1h-1zm-11 2v1h1v-1h-1zm11 0v1h1v-1h-1zm-15 2v4l3-2-3-2zm4 0v1h1v-1h-1zm11 0v1h1v-1h-1zm5 0-3 2 3 2v-4zm-16 2v7h12v-7h-12zm1 1h10v5h-10v-5z" fill="currentColor"/>
</svg>
