<svg viewBox="0 0 22 22" xmlns="http://www.w3.org/2000/svg">
 <defs>
  <style id="current-color-scheme" type="text/css">
   .ColorScheme-Text { color:#E8E9E4; } .ColorScheme-Highlight { color:#8FBCBB; } .ColorScheme-NeutralText { color:#AC8E71; } .ColorScheme-PositiveText { color:#A3BE8C; } .ColorScheme-NegativeText { color:#BF616A; }
  </style>
 </defs>
 <path class="ColorScheme-Text" d="m4 3v10h2v-2h-1v-7h12v7h-1v2h2v-10h-14m4 8v2h2v-2h-2m4 0v2h2v-2h-2m-6 3v2h2v-2h-2m4 0v2h2v-2h-2m4 0v2h2v-2h-2m-10 3v2h2v-2h-2m4 0v2h2v-2h-2m4 0v2h2v-2h-2m4 0v2h2v-2h-2" fill="currentColor"/>
</svg>
