<svg viewBox="0 0 22 22" xmlns="http://www.w3.org/2000/svg">
 <defs>
  <style id="current-color-scheme" type="text/css">
   .ColorScheme-Text { color:#E8E9E4; } .ColorScheme-Highlight { color:#8FBCBB; } .ColorScheme-NeutralText { color:#AC8E71; } .ColorScheme-PositiveText { color:#A3BE8C; } .ColorScheme-NegativeText { color:#BF616A; }
  </style>
 </defs>
 <g class="ColorScheme-NegativeText" fill="currentColor">
  <path d="m7.8379 7.1309a5 5 0 0 0-0.70703 0.70703l3.1621 3.1621-3.1621 3.1621a5 5 0 0 0 0.70703 0.70703l3.1621-3.1621 3.1621 3.1621a5 5 0 0 0 0.70703-0.70703l-3.1621-3.1621 3.1621-3.1621a5 5 0 0 0-0.70703-0.70703l-3.1621 3.1621-3.1621-3.1621"/>
  <path d="m11 3a8 8 0 0 0-8 8 8 8 0 0 0 8 8 8 8 0 0 0 8-8 8 8 0 0 0-8-8m0 1a7 7 0 0 1 7 7 7 7 0 0 1-7 7 7 7 0 0 1-7-7 7 7 0 0 1 7-7"/>
 </g>
</svg>
