<svg viewBox="0 0 22 22" xmlns="http://www.w3.org/2000/svg">
 <defs>
  <style id="current-color-scheme" type="text/css">
   .ColorScheme-Text { color:#E8E9E4; } .ColorScheme-Highlight { color:#8FBCBB; } .ColorScheme-NeutralText { color:#AC8E71; } .ColorScheme-PositiveText { color:#A3BE8C; } .ColorScheme-NegativeText { color:#BF616A; }
  </style>
 </defs>
 <path class="ColorScheme-Text" d="m11 5a9 6 0 0 0-9 6 9 6 0 0 0 9 6 9 6 0 0 0 9-6 9 6 0 0 0-9-6zm0 1a8 5 0 0 1 8 5 8 5 0 0 1-8 5 8 5 0 0 1-8-5 8 5 0 0 1 8-5z" fill="currentColor"/>
</svg>
