<svg viewBox="0 0 32 32" xmlns="http://www.w3.org/2000/svg">
 <defs>
  <style id="current-color-scheme" type="text/css">
   .ColorScheme-Text { color:#ccbeb1; } .ColorScheme-Highlight { color:#ac9680; } .ColorScheme-NeutralText { color:#8e755d; } .ColorScheme-PositiveText { color:#ac957f; } .ColorScheme-NegativeText { color:#695644; }
  </style>
 </defs>
 <path class="ColorScheme-Text" d="m4 4v19h1v-9h5l3-3h14v12h1v-16h-10l-3-3h-11zm8 19v2h-8v1h8v2h8v-2h8v-1h-8v-2h-8zm4 1a1.5 1.5 0 0 1 1.5 1.5 1.5 1.5 0 0 1-1.5 1.5 1.5 1.5 0 0 1-1.5-1.5 1.5 1.5 0 0 1 1.5-1.5z" fill="currentColor"/>
</svg>
