<svg viewBox="0 0 32 32" xmlns="http://www.w3.org/2000/svg">
 <defs>
  <style id="current-color-scheme" type="text/css">
   .ColorScheme-Text { color:#ccbeb1; } .ColorScheme-Highlight { color:#ac9680; } .ColorScheme-NeutralText { color:#8e755d; } .ColorScheme-PositiveText { color:#ac957f; } .ColorScheme-NegativeText { color:#695644; }
  </style>
 </defs>
 <path class="ColorScheme-Text" d="m9.0391 3.9961v14.09l-3.793-3.793-0.70703 0.70703 5 5 5-5-0.70703-0.70703-3.793 3.793v-14.09h-1zm6.9609 2.0039v1h9v-1h-9zm0 3v1h6v-1h-6zm0 3v1h12v-1h-12zm0 3v1h11v-1h-11zm0 3v1h5v-1h-5zm-12 3v1h24v-1h-24zm0 3v1h23v-1h-23zm12 3v1h12v-1h-12z" fill="currentColor"/>
</svg>
