<svg viewBox="0 0 32 32" xmlns="http://www.w3.org/2000/svg">
 <defs>
  <style id="current-color-scheme" type="text/css">
   .ColorScheme-Text { color:#ccbeb1; } .ColorScheme-Highlight { color:#ac9680; } .ColorScheme-NeutralText { color:#8e755d; } .ColorScheme-PositiveText { color:#ac957f; } .ColorScheme-NegativeText { color:#695644; }
  </style>
 </defs>
 <path class="ColorScheme-Text" d="m4 4v24h24v-24h-24zm1 5h22v18h-22v-18zm3 2v6h7v-6h-7zm9 0v6h7v-6h-7zm-8 1h5v4h-5v-4zm9 0h5v4h-5v-4zm-10 7v6h7v-6h-7zm9 0v6h7v-6h-7zm-8 1h5v4h-5v-4zm9 0h5v4h-5v-4z" fill="currentColor"/>
</svg>
